<?xml version="1.0" encoding="UTF-8"?>
<svg xmlns="http://www.w3.org/2000/svg" xmlns:xlink="http://www.w3.org/1999/xlink" width="1000pt" height="667pt" viewBox="0 0 1000 667" version="1.1">
<defs>
<clipPath id="clip1">
  <path d="M 4.199219 2.375 L 996.523438 2.375 L 996.523438 661.054688 L 4.199219 661.054688 Z M 4.199219 2.375 "/>
</clipPath>
</defs>
<g id="surface1">
<g clip-path="url(#clip1)" clip-rule="nonzero">
<path style=" stroke:none;fill-rule:nonzero;fill:rgb(5.490196%,12.54902%,31.372549%);fill-opacity:1;" d="M 495.511719 363.605469 C 563.539062 363.605469 625.691406 382.742188 669.359375 414.050781 L 676.078125 409.414062 C 629.886719 376.941406 566.0625 356.648438 494.667969 356.648438 C 423.28125 356.648438 360.292969 376.941406 314.945312 409.414062 L 321.660156 414.050781 C 366.175781 382.742188 427.480469 363.605469 495.511719 363.605469 M 495.511719 434.925781 C 537.503906 434.925781 574.457031 447.683594 600.488281 467.972656 L 608.046875 463.335938 C 580.335938 441.882812 540.859375 427.964844 495.511719 427.964844 C 450.15625 427.964844 410.6875 441.300781 382.96875 463.335938 L 390.527344 467.972656 C 416.566406 447.683594 453.519531 434.925781 495.511719 434.925781 M 632.40625 404.773438 C 629.886719 403.035156 627.363281 403.613281 625.691406 404.773438 L 570.257812 429.707031 L 582.015625 434.347656 L 621.488281 416.371094 L 615.609375 431.445312 L 610.570312 428.546875 L 599.652344 433.1875 L 612.253906 439.5625 L 608.890625 448.261719 L 618.96875 454.636719 L 637.449219 411.148438 C 638.285156 409.414062 638.285156 408.253906 635.765625 406.511719 Z M 390.527344 434.925781 C 393.890625 433.1875 396.40625 430.285156 396.40625 427.964844 C 397.25 425.066406 395.570312 422.75 391.371094 419.269531 L 369.53125 400.714844 L 379.613281 395.496094 L 403.964844 415.789062 C 409.007812 419.851562 410.6875 424.484375 410.6875 429.125 C 409.84375 434.347656 406.484375 438.402344 399.769531 442.460938 C 393.046875 445.941406 386.332031 447.683594 378.773438 447.101562 C 372.054688 446.523438 366.175781 444.203125 361.136719 440.140625 L 336.777344 419.851562 L 346.855469 414.628906 L 368.695312 433.1875 C 372.894531 436.660156 375.410156 438.402344 380.453125 438.402344 C 382.96875 437.820312 387.167969 436.660156 390.527344 434.925781 M 443.441406 386.796875 L 445.960938 396.65625 L 474.515625 392.597656 L 477.035156 400.714844 L 448.476562 404.773438 L 449.320312 408.253906 C 451 412.890625 453.519531 413.46875 459.398438 412.890625 L 482.074219 409.414062 L 484.59375 417.53125 L 461.078125 421.007812 C 450.15625 422.75 440.082031 420.429688 437.5625 411.148438 L 429.160156 383.320312 C 428.324219 381 430.003906 379.839844 432.523438 379.261719 L 471.15625 374.042969 L 473.671875 382.160156 Z M 527.421875 420.429688 L 519.863281 419.269531 C 517.347656 418.691406 515.664062 417.53125 516.507812 415.210938 L 526.585938 387.957031 C 529.945312 378.679688 540.023438 376.941406 550.941406 378.679688 L 574.457031 382.742188 L 571.941406 390.859375 L 549.261719 386.796875 C 543.382812 385.636719 540.859375 386.21875 539.1875 390.859375 L 537.503906 394.917969 L 566.0625 400.132812 L 562.699219 408.253906 L 534.144531 403.035156 Z M 764.265625 650.621094 L 767.621094 650.621094 C 769.300781 650.621094 771.824219 650.621094 771.824219 648.878906 C 771.824219 647.71875 770.144531 647.140625 768.464844 647.140625 L 765.101562 647.140625 L 765.101562 650.621094 Z M 764.265625 651.78125 L 764.265625 656.417969 L 761.742188 656.417969 L 761.742188 645.398438 L 767.621094 645.398438 C 771.824219 645.398438 773.5 646.558594 773.5 648.300781 C 773.5 650.039062 771.824219 651.199219 769.300781 651.199219 L 773.5 656.417969 L 770.980469 656.417969 L 766.78125 651.78125 Z M 755.027344 651.199219 C 755.027344 655.839844 760.0625 659.316406 766.78125 659.316406 C 773.5 659.316406 778.539062 655.839844 778.539062 651.199219 C 778.539062 646.558594 773.5 643.082031 766.78125 643.082031 C 760.0625 643.082031 755.027344 646.558594 755.027344 651.199219 M 766.78125 661.054688 C 759.222656 661.054688 752.507812 657 752.507812 651.199219 C 752.507812 645.398438 759.222656 641.34375 766.78125 641.34375 C 774.339844 641.34375 781.058594 645.398438 781.058594 651.199219 C 781.058594 657 774.339844 661.054688 766.78125 661.054688 M 690.355469 590.898438 L 690.355469 633.222656 C 690.355469 635.542969 688.675781 636.703125 685.320312 636.703125 L 685.320312 639.023438 L 747.464844 639.023438 C 747.464844 634.382812 747.464844 630.328125 749.148438 623.367188 L 744.949219 623.367188 C 743.269531 630.328125 740.746094 631.488281 734.867188 631.488281 L 707.992188 631.488281 L 707.992188 614.089844 L 723.953125 614.089844 C 728.988281 614.089844 729.832031 615.25 730.667969 618.152344 L 734.027344 618.152344 C 734.027344 616.410156 733.1875 612.351562 733.1875 610.609375 C 733.1875 608.292969 733.1875 604.816406 734.027344 603.074219 L 730.667969 603.074219 C 729.832031 605.972656 728.988281 607.132812 723.953125 607.132812 L 707.992188 607.132812 L 707.992188 591.480469 L 733.1875 591.480469 C 739.90625 591.480469 741.585938 593.214844 742.425781 597.273438 L 745.785156 597.273438 C 744.949219 592.640625 744.949219 589.160156 744.949219 584.519531 L 685.320312 584.519531 L 685.320312 586.839844 C 688.675781 588 690.355469 589.160156 690.355469 590.898438 M 595.453125 590.898438 L 595.453125 621.046875 C 595.453125 634.964844 606.367188 639.601562 628.207031 639.601562 C 649.203125 639.601562 660.960938 634.964844 660.960938 619.886719 L 660.960938 590.898438 C 660.960938 588.578125 662.640625 587.417969 666.003906 587.417969 L 666.003906 585.097656 C 661.800781 585.097656 657.601562 585.679688 652.566406 585.679688 C 646.679688 585.679688 641.644531 585.679688 636.605469 585.097656 L 636.605469 587.417969 C 641.644531 587.417969 643.324219 588 643.324219 591.480469 L 643.324219 621.628906 C 643.324219 630.90625 637.449219 632.644531 628.207031 632.644531 C 618.96875 632.644531 613.089844 630.90625 613.089844 621.628906 L 613.089844 591.480469 C 613.089844 588.578125 614.769531 587.417969 619.804688 587.417969 L 619.804688 585.097656 C 614.769531 585.097656 610.570312 585.679688 603.851562 585.679688 C 598.816406 585.679688 593.773438 585.679688 590.414062 585.097656 L 590.414062 587.417969 C 593.773438 587.417969 595.453125 588.578125 595.453125 590.898438 M 548.417969 619.886719 L 548.417969 625.6875 C 548.417969 629.167969 544.222656 632.0625 535.824219 632.0625 C 522.386719 632.0625 513.984375 620.46875 513.984375 610.609375 C 513.984375 600.175781 522.386719 591.480469 538.34375 591.480469 C 548.417969 591.480469 557.660156 594.953125 559.339844 602.496094 L 562.699219 602.496094 C 561.855469 596.695312 561.855469 592.058594 561.855469 588.578125 C 555.140625 585.679688 546.738281 584.519531 538.34375 584.519531 C 513.148438 584.519531 495.511719 594.953125 495.511719 612.929688 C 495.511719 627.425781 509.789062 640.183594 531.625 640.183594 C 540.023438 640.183594 547.582031 638.441406 555.140625 633.804688 L 557.660156 639.023438 L 564.378906 639.023438 L 564.378906 621.046875 C 564.378906 617.570312 566.898438 616.410156 570.257812 616.410156 L 570.257812 614.089844 C 565.21875 614.089844 560.175781 614.671875 554.296875 614.671875 C 549.261719 614.671875 544.222656 614.671875 540.023438 614.089844 L 540.023438 616.992188 C 546.738281 616.410156 548.417969 616.410156 548.417969 619.886719 M 453.519531 615.832031 L 436.71875 615.832031 C 440.082031 610.03125 443.441406 603.65625 445.960938 597.273438 C 449.320312 605.394531 451 610.03125 453.519531 615.832031 M 408.164062 636.703125 L 408.164062 639.023438 C 412.367188 639.023438 416.566406 638.441406 420.765625 638.441406 C 424.964844 638.441406 429.160156 638.441406 432.523438 639.023438 L 432.523438 636.703125 C 428.324219 636.703125 426.644531 635.542969 426.644531 634.382812 C 426.644531 633.804688 426.644531 632.644531 427.480469 631.488281 L 432.523438 622.207031 L 455.199219 622.207031 L 458.558594 630.328125 C 459.398438 631.488281 459.398438 633.222656 459.398438 634.382812 C 459.398438 636.125 457.71875 636.703125 453.519531 637.285156 L 453.519531 639.601562 C 458.558594 639.601562 463.59375 639.023438 468.636719 639.023438 C 473.671875 639.023438 478.714844 639.023438 483.753906 639.601562 L 483.753906 637.285156 C 480.394531 636.703125 478.714844 635.542969 477.035156 632.0625 L 455.199219 585.679688 C 451.839844 585.679688 447.640625 586.257812 444.28125 586.257812 C 440.917969 586.257812 436.71875 586.257812 433.359375 585.679688 L 433.359375 588 C 436.71875 588 437.5625 589.160156 437.5625 590.320312 C 437.5625 590.898438 436.71875 592.058594 435.882812 593.214844 L 413.207031 633.222656 C 413.207031 634.964844 411.527344 636.125 408.164062 636.703125 M 335.941406 590.898438 L 335.941406 633.222656 C 335.941406 635.542969 334.261719 636.703125 330.898438 636.703125 L 330.898438 639.023438 L 393.046875 639.023438 C 393.046875 634.382812 393.046875 630.328125 394.726562 623.367188 L 390.527344 623.367188 C 388.847656 630.328125 386.332031 631.488281 380.453125 631.488281 L 353.578125 631.488281 L 353.578125 614.671875 L 369.53125 614.671875 C 374.574219 614.671875 375.410156 615.832031 376.253906 618.730469 L 379.613281 618.730469 C 379.613281 616.992188 378.773438 612.929688 378.773438 611.191406 C 378.773438 608.871094 378.773438 605.394531 379.613281 603.65625 L 376.253906 603.65625 C 375.410156 606.550781 374.574219 607.710938 369.53125 607.710938 L 353.578125 607.710938 L 353.578125 592.058594 L 378.773438 592.058594 C 385.492188 592.058594 387.167969 593.796875 388.011719 597.855469 L 391.371094 597.855469 C 390.527344 593.214844 390.527344 589.738281 390.527344 585.097656 L 330.898438 585.097656 L 330.898438 587.417969 C 335.097656 588 335.941406 589.160156 335.941406 590.898438 M 261.195312 590.898438 L 261.195312 633.222656 C 261.195312 635.542969 259.511719 636.703125 256.152344 636.703125 L 256.152344 639.023438 L 314.945312 639.023438 C 314.945312 633.804688 316.625 628.585938 317.460938 623.367188 L 313.265625 623.367188 C 311.582031 629.746094 308.222656 632.0625 300.664062 632.0625 L 278.828125 632.0625 L 278.828125 592.058594 C 278.828125 589.738281 279.671875 588 285.550781 587.417969 L 285.550781 585.097656 C 282.191406 585.097656 274.632812 585.679688 270.433594 585.679688 C 266.234375 585.679688 261.195312 585.679688 256.152344 585.097656 L 256.152344 587.417969 C 259.511719 587.417969 261.195312 588.578125 261.195312 590.898438 M 96.582031 549.152344 L 98.261719 535.816406 C 89.023438 541.03125 75.585938 544.511719 66.351562 544.511719 C 44.511719 544.511719 28.554688 529.433594 28.554688 516.097656 C 28.554688 498.707031 43.671875 488.269531 62.148438 488.269531 C 76.425781 488.269531 86.503906 493.484375 89.023438 503.34375 L 93.21875 503.34375 C 92.382812 495.804688 91.546875 488.269531 91.546875 480.148438 C 87.34375 478.988281 78.109375 477.25 63.828125 477.25 C 24.359375 477.25 4.199219 496.964844 4.199219 517.257812 C 4.199219 536.972656 24.359375 556.6875 61.308594 556.6875 C 70.550781 556.6875 85.667969 554.367188 96.582031 549.152344 M 365.332031 500.445312 L 361.972656 544.511719 C 361.972656 549.152344 359.457031 549.730469 353.578125 550.3125 L 353.578125 553.210938 C 358.617188 552.628906 363.652344 552.628906 369.53125 552.628906 C 375.410156 552.628906 381.289062 553.210938 387.167969 553.210938 L 387.167969 550.3125 C 377.933594 549.730469 377.089844 548.570312 377.089844 543.351562 C 377.089844 540.453125 377.089844 537.554688 377.933594 532.335938 L 378.773438 501.601562 L 408.164062 553.785156 L 420.765625 553.785156 L 445.960938 502.183594 L 449.320312 533.496094 C 450.15625 536.972656 450.15625 541.609375 450.15625 544.511719 C 450.15625 549.152344 448.476562 550.3125 440.917969 550.890625 L 440.917969 553.785156 C 446.796875 553.210938 453.519531 553.210938 460.234375 553.210938 C 466.957031 553.210938 473.671875 553.785156 480.394531 553.785156 L 480.394531 550.890625 C 477.035156 550.3125 472.835938 550.3125 472.835938 547.410156 L 467.792969 502.183594 C 466.957031 498.707031 466.957031 494.066406 466.957031 491.167969 C 466.957031 488.269531 467.792969 487.109375 472.835938 487.109375 L 472.835938 483.628906 C 467.792969 484.210938 461.914062 484.210938 456.878906 484.210938 C 451.839844 484.210938 445.960938 483.628906 440.917969 483.628906 L 417.402344 532.335938 L 391.371094 483.628906 C 385.492188 484.210938 380.453125 484.210938 374.574219 484.210938 C 368.695312 484.210938 363.652344 483.628906 358.617188 483.628906 L 358.617188 486.53125 C 364.496094 487.109375 365.332031 487.691406 365.332031 490.585938 C 366.175781 494.644531 365.332031 497.546875 365.332031 500.445312 M 235.15625 552.628906 L 235.15625 549.730469 C 239.359375 549.152344 241.878906 547.410156 242.714844 545.089844 L 272.949219 492.90625 C 273.789062 491.167969 274.632812 490.007812 274.632812 488.847656 C 274.632812 487.691406 272.949219 485.949219 268.753906 485.949219 L 268.753906 483.628906 C 273.789062 484.210938 277.992188 484.210938 283.027344 484.210938 C 288.070312 484.210938 292.265625 483.628906 297.308594 483.628906 L 325.019531 543.351562 C 327.539062 547.992188 329.21875 549.152344 334.261719 550.3125 L 334.261719 553.210938 C 327.539062 552.628906 321.660156 552.628906 314.945312 552.628906 C 308.222656 552.628906 301.507812 553.210938 295.628906 553.210938 L 295.628906 550.3125 C 301.507812 549.730469 303.1875 548.570312 303.1875 546.25 C 303.1875 544.511719 302.34375 542.191406 301.507812 541.03125 L 296.464844 530.59375 L 267.074219 530.59375 L 260.351562 542.769531 C 259.511719 544.511719 259.511719 545.671875 259.511719 546.25 C 259.511719 547.992188 262.03125 549.152344 267.074219 549.730469 L 267.074219 552.628906 C 262.03125 552.050781 256.152344 552.050781 251.117188 552.050781 C 245.238281 552.050781 240.195312 552.628906 235.15625 552.628906 M 271.269531 522.476562 L 293.105469 522.476562 C 289.75 515.519531 287.226562 509.140625 283.871094 498.125 C 280.511719 506.824219 275.46875 515.519531 271.269531 522.476562 M 125.980469 490.585938 L 125.980469 545.671875 C 125.980469 548.570312 124.300781 549.730469 119.257812 550.3125 L 119.257812 553.210938 C 125.980469 552.628906 131.859375 552.628906 137.738281 552.628906 C 143.617188 552.628906 149.496094 553.210938 156.210938 553.210938 L 156.210938 550.3125 C 151.175781 550.3125 149.496094 548.570312 149.496094 545.671875 L 149.496094 521.320312 L 186.445312 521.320312 L 186.445312 545.671875 C 186.445312 548.570312 184.765625 549.730469 179.730469 550.3125 L 179.730469 553.210938 C 186.445312 552.628906 192.324219 552.628906 198.203125 552.628906 C 204.082031 552.628906 209.960938 553.210938 216.683594 553.210938 L 216.683594 550.3125 C 211.640625 550.3125 209.960938 548.570312 209.960938 545.671875 L 209.960938 490.585938 C 209.960938 487.691406 211.640625 486.53125 216.683594 485.949219 L 216.683594 483.628906 C 209.960938 484.210938 204.082031 484.210938 198.203125 484.210938 C 192.324219 484.210938 186.445312 483.628906 179.730469 483.628906 L 179.730469 486.53125 C 184.765625 486.53125 186.445312 488.269531 186.445312 491.167969 L 186.445312 512.042969 L 149.496094 512.042969 L 149.496094 491.167969 C 149.496094 488.269531 151.175781 487.109375 156.210938 486.53125 L 156.210938 483.628906 C 149.496094 484.210938 143.617188 484.210938 137.738281 484.210938 C 131.859375 484.210938 125.980469 483.628906 119.257812 483.628906 L 119.257812 486.53125 C 124.300781 486.53125 125.980469 487.691406 125.980469 490.585938 M 918.792969 528.855469 L 914.597656 528.855469 C 915.433594 535.234375 915.433594 542.769531 915.433594 550.890625 C 926.355469 553.210938 938.109375 554.945312 949.867188 554.945312 C 975.0625 554.945312 996.058594 547.410156 996.058594 532.914062 C 996.058594 519 980.941406 514.9375 965.828125 511.460938 L 949.03125 507.980469 C 942.308594 506.824219 934.75 505.082031 934.75 498.707031 C 934.75 491.167969 948.1875 489.425781 955.746094 489.425781 C 970.027344 489.425781 981.785156 494.066406 985.144531 503.921875 L 989.34375 503.921875 C 988.5 498.125 988.5 491.746094 988.5 483.628906 C 979.265625 481.308594 969.183594 480.148438 959.109375 480.148438 C 935.59375 480.148438 912.078125 485.371094 912.078125 502.183594 C 912.078125 514.9375 928.035156 519.578125 943.988281 523.058594 L 954.910156 525.378906 C 962.46875 527.117188 971.707031 528.855469 971.707031 535.234375 C 971.707031 543.351562 958.269531 545.089844 949.03125 545.089844 C 933.070312 546.25 922.15625 540.453125 918.792969 528.855469 M 800.375 490.585938 L 800.375 545.671875 C 800.375 548.570312 798.699219 549.730469 793.65625 550.3125 L 793.65625 553.210938 C 798.699219 552.628906 803.734375 552.628906 808.777344 552.628906 C 813.8125 552.628906 818.015625 553.210938 823.050781 553.210938 L 823.050781 550.3125 C 818.851562 550.3125 813.8125 549.730469 813.8125 544.511719 L 813.8125 498.707031 L 864.207031 553.210938 L 880.164062 553.210938 L 880.164062 490.585938 C 880.164062 487.691406 881.84375 486.53125 886.878906 485.949219 L 886.878906 483.628906 C 881.84375 484.210938 876.800781 484.210938 871.765625 484.210938 C 866.726562 484.210938 862.527344 483.628906 857.484375 483.628906 L 857.484375 486.53125 C 861.683594 486.53125 866.726562 487.109375 866.726562 492.328125 L 866.726562 530.59375 L 824.730469 483.628906 C 819.691406 484.210938 815.492188 484.210938 811.292969 484.210938 C 805.414062 484.210938 799.535156 483.628906 792.816406 483.628906 L 792.816406 486.53125 C 798.699219 486.53125 800.375 487.691406 800.375 490.585938 M 616.449219 490.585938 L 616.449219 545.671875 C 616.449219 548.570312 614.769531 549.730469 609.730469 550.3125 L 609.730469 553.210938 C 616.449219 552.628906 622.328125 552.628906 628.207031 552.628906 C 634.085938 552.628906 639.964844 553.210938 646.679688 553.210938 L 646.679688 550.3125 C 641.644531 550.3125 639.964844 548.570312 639.964844 545.671875 L 639.964844 490.585938 C 639.964844 487.691406 641.644531 486.53125 646.679688 485.949219 L 646.679688 483.628906 C 639.964844 484.210938 634.085938 484.210938 628.207031 484.210938 C 622.328125 484.210938 616.449219 483.628906 609.730469 483.628906 L 609.730469 486.53125 C 614.769531 486.53125 616.449219 487.691406 616.449219 490.585938 M 533.300781 543.929688 L 533.300781 494.066406 L 542.539062 493.484375 C 555.980469 493.484375 564.378906 496.964844 564.378906 506.242188 C 564.378906 514.9375 558.503906 521.320312 542.539062 521.320312 C 540.859375 521.320312 538.34375 520.738281 537.503906 520.738281 C 535.824219 520.738281 534.980469 520.738281 534.980469 521.898438 C 534.980469 524.21875 545.902344 526.539062 553.460938 526.539062 C 572.777344 526.539062 587.050781 518.417969 587.050781 505.664062 C 587.050781 493.484375 576.976562 484.210938 548.417969 484.210938 L 503.070312 484.210938 L 503.070312 487.109375 C 508.105469 487.109375 509.789062 488.847656 509.789062 491.746094 L 509.789062 543.351562 C 509.789062 548.570312 508.949219 550.3125 503.070312 550.890625 L 503.070312 553.785156 C 509.789062 553.210938 515.664062 553.210938 521.542969 553.210938 C 527.421875 553.210938 533.300781 553.785156 542.539062 553.785156 L 542.539062 550.890625 C 534.144531 549.152344 533.300781 547.992188 533.300781 543.929688 M 717.230469 492.90625 C 739.90625 492.90625 746.625 510.882812 746.625 523.058594 C 746.625 534.65625 737.390625 543.929688 722.273438 543.929688 C 700.433594 543.929688 692.871094 525.957031 692.871094 513.78125 C 692.871094 505.082031 698.757812 492.90625 717.230469 492.90625 M 718.910156 553.785156 C 746.625 553.785156 769.300781 540.453125 769.300781 518.417969 C 769.300781 499.867188 750.828125 482.46875 719.75 482.46875 C 692.035156 482.46875 670.203125 496.964844 670.203125 516.679688 C 670.203125 536.394531 688.675781 553.785156 718.910156 553.785156 M 601.332031 288.230469 C 606.367188 273.152344 602.171875 259.238281 602.171875 259.238281 C 587.894531 273.152344 574.457031 283.589844 561.855469 291.707031 C 527.421875 292.867188 501.390625 289.96875 501.390625 289.96875 C 501.390625 289.96875 516.507812 300.40625 534.144531 306.78125 C 510.628906 316.640625 495.511719 317.800781 495.511719 317.800781 C 597.132812 319.535156 657.601562 273.734375 657.601562 273.734375 C 640.800781 280.109375 620.648438 285.328125 601.332031 288.230469 M 501.390625 289.390625 C 501.390625 289.390625 480.394531 283.589844 451 271.992188 C 451.839844 259.816406 455.199219 244.160156 460.234375 224.449219 C 460.234375 224.449219 436.71875 240.683594 406.484375 252.859375 C 388.847656 244.160156 370.375 234.304688 351.894531 223.289062 C 351.894531 223.289062 360.292969 241.839844 377.933594 262.714844 C 361.972656 266.777344 345.179688 268.511719 330.0625 266.195312 C 330.0625 266.195312 347.699219 281.847656 403.128906 288.230469 C 418.246094 300.984375 436.71875 310.839844 458.558594 314.902344 C 458.558594 314.902344 451.839844 309.679688 450.15625 291.128906 C 466.117188 291.128906 482.910156 290.546875 501.390625 289.390625 M 379.613281 150.226562 C 355.257812 150.808594 335.941406 151.96875 320.824219 154.289062 C 316.625 136.316406 315.78125 122.980469 315.78125 122.980469 C 304.023438 135.734375 295.628906 147.910156 290.585938 159.507812 C 273.789062 164.144531 268.753906 168.203125 268.753906 168.203125 C 271.269531 174.582031 277.148438 180.378906 283.871094 186.179688 C 281.347656 213.433594 294.785156 231.40625 294.785156 231.40625 C 297.308594 222.128906 303.1875 212.273438 310.746094 203.570312 C 331.742188 215.167969 352.738281 222.707031 352.738281 222.707031 C 342.65625 210.53125 335.941406 197.195312 330.0625 183.859375 C 353.578125 164.144531 379.613281 150.226562 379.613281 150.226562 M 322.503906 84.707031 C 334.261719 77.171875 348.535156 68.476562 366.175781 59.773438 C 366.175781 59.773438 350.214844 59.773438 333.417969 62.675781 C 344.335938 44.121094 356.9375 33.683594 356.9375 33.683594 C 356.9375 33.683594 285.550781 68.476562 272.113281 131.09375 C 272.113281 131.09375 277.992188 120.078125 298.144531 102.683594 C 306.542969 114.859375 315.78125 122.980469 315.78125 122.980469 C 315.78125 108.484375 318.304688 95.726562 322.503906 84.707031 M 558.503906 33.101562 C 540.023438 26.726562 521.542969 22.085938 504.75 18.609375 C 525.75 6.433594 545.902344 2.953125 545.902344 2.953125 C 512.3125 2.375 482.910156 6.433594 457.71875 13.390625 C 420.765625 11.070312 397.25 15.710938 397.25 15.710938 C 403.128906 18.609375 407.328125 23.828125 412.367188 29.625 C 381.289062 44.121094 365.332031 59.773438 365.332031 59.773438 C 383.8125 53.398438 403.964844 48.757812 423.28125 44.703125 C 425.804688 47.597656 427.480469 49.917969 430.003906 52.820312 C 442.597656 66.734375 456.878906 76.589844 456.878906 76.589844 C 461.914062 59.773438 470.316406 47.019531 480.394531 36.582031 C 525.75 32.527344 558.503906 33.101562 558.503906 33.101562 M 715.550781 106.164062 C 703.792969 88.1875 686.996094 74.269531 669.359375 64.414062 C 653.402344 41.804688 635.765625 31.367188 635.765625 31.367188 C 637.449219 36.582031 635.765625 42.382812 633.242188 48.757812 C 593.773438 34.84375 558.503906 33.101562 558.503906 33.101562 C 581.171875 43.542969 601.332031 55.71875 618.132812 69.054688 C 602.171875 87.027344 581.171875 102.101562 581.171875 102.101562 C 608.890625 98.042969 630.726562 95.726562 648.363281 95.726562 C 675.238281 121.820312 690.355469 143.273438 690.355469 143.273438 C 691.199219 125.875 688.675781 110.222656 684.476562 97.46875 C 707.992188 99.785156 715.550781 106.164062 715.550781 106.164062 M 727.308594 171.105469 C 720.589844 178.640625 710.515625 183.859375 697.914062 187.339844 C 696.234375 164.144531 691.199219 143.273438 691.199219 143.273438 C 681.117188 162.40625 670.203125 179.800781 659.28125 194.296875 C 623.167969 197.777344 587.050781 193.714844 587.050781 193.714844 C 606.367188 209.953125 622.328125 219.808594 634.085938 226.1875 C 615.609375 247.640625 602.171875 259.238281 602.171875 259.238281 C 628.207031 255.175781 648.363281 248.21875 665.160156 240.105469 C 671.882812 243 677.761719 247.058594 683.640625 252.859375 C 683.640625 252.859375 694.554688 242.421875 697.914062 218.648438 C 723.109375 194.875 727.308594 171.105469 727.308594 171.105469 M 500.546875 179.800781 C 487.109375 194.296875 472.835938 209.371094 461.078125 225.027344 C 461.078125 225.027344 451 201.835938 447.640625 168.785156 C 424.964844 163.5625 402.285156 157.769531 379.613281 150.808594 C 379.613281 150.808594 405.648438 141.53125 446.796875 131.09375 C 447.640625 113.699219 451.839844 95.726562 458.558594 77.171875 C 458.558594 77.171875 471.996094 94.566406 496.347656 118.917969 C 522.386719 113.121094 550.941406 107.324219 582.015625 102.683594 C 582.015625 102.683594 559.339844 122.398438 530.785156 150.226562 C 547.582031 164.722656 566.0625 179.800781 587.894531 194.296875 C 587.050781 193.714844 550.101562 189.074219 500.546875 179.800781 "/>
</g>
</g>
</svg>
